HIERARCHY
ROOT hip
{
	OFFSET 0.000000 0.000000 0.000000 
	CHANNELS 6 Xposition Yposition Zposition Xrotation Zrotation Yrotation
	JOINT abdomen
	{
		OFFSET 0.000000 3.402643 0.000000 
		CHANNELS 3 Xrotation Zrotation Yrotation
		JOINT chest
		{
			OFFSET 0.000000 8.438565 -0.680529 
			CHANNELS 3 Xrotation Zrotation Yrotation
			JOINT neck
			{
				OFFSET 0.000000 10.207942 -0.272212 
				CHANNELS 3 Xrotation Zrotation Yrotation
				JOINT head
				{
					OFFSET 0.000000 3.130431 0.000000 
					CHANNELS 3 Xrotation Zrotation Yrotation
					End Site
					{
						OFFSET 0.000000 3.130435 0.000000 
					}
				}
			}
			JOINT lCollar
			{
				OFFSET 3.470700 6.669187 -0.816635 
				CHANNELS 3 Yrotation Zrotation Xrotation
				JOINT lShldr
				{
					OFFSET 3.198488 0.000000 0.000000 
					CHANNELS 3 Zrotation Yrotation Xrotation
					JOINT lForeArm
					{
						OFFSET 10.139888 0.000000 0.000000 
						CHANNELS 3 Yrotation Zrotation Xrotation
						JOINT lHand
						{
							OFFSET 8.370511 0.000000 0.000000 
							CHANNELS 3 Zrotation Yrotation Xrotation
							End Site
							{
								OFFSET 4.083176 0.000000 0.000000 
							}
						}
					}
				}
			}
			JOINT rCollar
			{
				OFFSET -3.470700 6.669187 -0.816635 
				CHANNELS 3 Yrotation Zrotation Xrotation
				JOINT rShldr
				{
					OFFSET -3.198488 0.000000 0.000000 
					CHANNELS 3 Zrotation Yrotation Xrotation
					JOINT rForeArm
					{
						OFFSET -10.139888 0.000000 0.000000 
						CHANNELS 3 Yrotation Zrotation Xrotation
						JOINT rHand
						{
							OFFSET -8.370511 0.000000 0.000000 
							CHANNELS 3 Zrotation Yrotation Xrotation
							End Site
							{
								OFFSET -4.083176 0.000000 0.000000 
							}
						}
					}
				}
			}
		}
	}
	JOINT lThigh
	{
		OFFSET 5.308129 -1.633274 1.361059 
		CHANNELS 3 Xrotation Zrotation Yrotation
		JOINT lShin
		{
			OFFSET -2.041588 -20.007561 0.000000 
			CHANNELS 3 Xrotation Zrotation Yrotation
			JOINT lFoot
			{
				OFFSET 0.000000 -19.190928 -1.224953 
				CHANNELS 3 Xrotation Yrotation Zrotation
				End Site
				{
					OFFSET 0.000000 -2.449906 4.627600 
				}
			}
		}
	}
	JOINT rThigh
	{
		OFFSET -5.308129 -1.633274 1.361059 
		CHANNELS 3 Xrotation Zrotation Yrotation
		JOINT rShin
		{
			OFFSET 2.041588 -20.007561 0.000000 
			CHANNELS 3 Xrotation Zrotation Yrotation
			JOINT rFoot
			{
				OFFSET 0.000000 -19.190928 -1.224953 
				CHANNELS 3 Xrotation Yrotation Zrotation
				End Site
				{
					OFFSET 0.000000 -2.449906 4.627600 
				}
			}
		}
	}
}
MOTION
Frames: 6
Frame Time: 0.033333
9.886003 37.689068 21.162188 0.869141 -9.853516 89.285439 25.322266 5.673828 5.830078 -26.894531 -1.318359 3.525166 -21.660156 6.328125 24.503029 19.443359 -16.191408 24.606651 3.056641 9.257813 0.340226 -31.806641 -6.230469 -41.710045 -45.888672 -3.007812 -93.720192 48.369141 -3.798828 -4.160156 4.550781 -5.917969 0.118194 50.478516 64.404297 -38.936508 130.947266 3.623047 -46.738903 -13.750000 -5.205078 0.975678 -31.946655 17.143595 8.831835 94.376915 2.401190 -3.932198 -16.857409 15.328775 -0.159416 -50.852001 -30.719296 6.124660 72.773232 -1.787213 3.411006 -17.592327 -17.996819 -1.067050 
9.950435 37.921558 20.704185 1.054688 -10.019501 91.707283 24.990234 5.419922 4.991157 -27.246092 -1.679688 2.812214 -22.724607 6.455078 24.131956 20.146484 -16.015625 24.098867 2.695313 9.257813 0.398820 -32.011719 -7.470703 -41.856739 -45.468750 -3.056641 -94.638672 47.929688 -5.488281 -5.645464 3.681640 -6.425781 0.244141 43.720703 68.017578 -45.889381 129.482422 3.632813 -46.026012 -13.886718 -4.355469 0.790276 -36.529545 18.044470 8.524418 95.078247 2.039649 -3.839733 -20.103226 17.800455 1.617996 -49.100563 -31.610928 6.430142 71.929131 -1.259757 3.239588 -16.813622 -20.109793 -1.551468 
9.976402 38.162750 20.241890 0.869141 -10.039063 94.560547 25.185547 5.380860 4.043885 -27.597656 -2.021484 1.933249 -23.447266 6.425781 23.945313 20.839844 -15.654297 23.942678 2.509765 9.433594 0.410156 -32.187500 -8.447266 -42.091278 -45.224613 -3.037110 -95.439453 47.177734 -6.601562 -6.934714 2.978516 -6.962891 0.186731 34.619141 69.833984 -54.424427 127.880852 3.476563 -45.917969 -14.033203 -3.691406 0.605469 -41.547062 18.687716 8.637445 95.267563 2.225438 -3.814447 -20.475006 16.612822 1.372128 -46.745735 -32.537872 6.144895 70.685844 -1.259461 3.556741 -15.696579 -22.872738 -1.718494 
10.031648 38.361191 19.761471 0.351563 -9.843740 97.508087 25.371094 5.449219 2.763672 -28.125000 -2.382813 0.868735 -23.964844 6.425781 23.955076 21.357424 -15.322266 23.786480 2.871094 9.599609 0.351563 -32.255859 -9.931640 -41.808327 -45.136719 -2.939453 -96.093246 47.050781 -8.037110 -8.233788 1.757813 -7.304688 0.244141 22.783203 70.498047 -66.142578 125.566406 3.623047 -46.982418 -14.199219 -3.164063 0.585938 -45.732391 19.560614 10.098141 94.004242 2.391870 -3.976553 -19.754734 15.456978 0.745683 -44.462624 -33.222504 6.021533 69.982338 -1.278472 3.535675 -13.736537 -24.497370 -1.554305 
10.184030 38.481236 19.290726 -0.537109 -9.160171 100.525803 25.927734 5.634766 1.709943 -28.300779 -2.382813 -0.361734 -23.964844 6.425781 23.955076 21.708984 -14.785155 23.972116 3.701172 10.517579 0.476733 -32.568359 -11.777345 -41.845703 -45.107422 -2.900391 -95.957031 47.363285 -8.720703 -9.151870 0.039063 -8.183594 0.351563 10.312501 69.619141 -79.609985 122.714836 3.632812 -48.486328 -14.345702 -2.832031 0.409675 -47.349682 19.743547 10.862427 91.419434 1.708567 -4.017114 -19.801729 15.039047 0.714557 -42.513134 -33.033363 6.349388 70.344933 -1.269284 3.517457 -10.321210 -25.793785 -0.430515 
10.452291 38.508797 18.817043 -1.425781 -8.261718 102.820862 26.123047 5.986328 0.723675 -28.125000 -2.021484 -1.406594 -23.437500 6.289063 24.150389 21.708984 -14.785155 23.972116 4.550782 10.888672 0.505968 -32.568356 -13.281251 -41.467091 -45.078125 -2.978516 -95.702614 47.802734 -8.935546 -9.366749 -1.865234 -8.906250 0.410156 -0.302734 67.734375 -91.679688 119.765633 3.496094 -49.609974 -14.716797 -2.802852 0.556217 -46.577507 18.756811 10.678041 88.774963 1.718898 -3.899860 -21.619209 16.485140 1.686361 -42.123566 -32.497040 7.483142 72.424202 -2.118823 3.512585 -5.590750 -25.268265 1.910606 
